<?xml version="1.0" encoding="utf-8"?>
<!-- Generator: Adobe Illustrator 25.2.1, SVG Export Plug-In . SVG Version: 6.00 Build 0)  -->
<svg version="1.1" id="Calque_1" xmlns="http://www.w3.org/2000/svg" xmlns:xlink="http://www.w3.org/1999/xlink" x="0px" y="0px"
	 viewBox="0 0 390.8 468" style="enable-background:new 0 0 390.8 468;" xml:space="preserve">
<style type="text/css">
	.st0{fill:#FFFFFF;stroke:#9A55FF;stroke-miterlimit:10;}
</style>
<path class="st0" d="M1,84c132.3-64.9,247.8-64.6,284.4-16.2c30.1,39.9,11.6,118.9-22,128.4c-53.7,15.2-136.6-149-156.3-139.5
	C81.1,69.4,209.9,362.4,220,359c2.9-1-3.7-26.7-12.4-61c-15.3-59.9-30.3-95.2-23.4-98.6c5.9-2.9,15.7,23.3,39.9,29.8
	c36,9.7,93-26.9,106.7-74.6c14.2-49-20.7-97.4-52.3-121.3C187.7-35.2,13.3,15.4,1,70.3C0,74.8,0,79.5,1,84z"/>
<path class="st0" d="M310.3,323.3c51.2,22.8,53,18,78,27c30.9,11.1-268.6,150.8-294,110c-18-29,95.1-130.6,97-129
	c1.3,1.1-51.6,48-40,71c15.8,31.3,147.4,13,157-28c7.5-32.3-61.5-74.4-57-80C254,291,275.8,308,310.3,323.3z"/>
</svg>
