<svg id="Calque_1" data-name="Calque 1" xmlns="http://www.w3.org/2000/svg" xmlns:xlink="http://www.w3.org/1999/xlink" viewBox="0 0 390.8 468.02"><defs><style>.cls-1,.cls-2{stroke:#90f;stroke-linecap:round;stroke-miterlimit:10;stroke-width:0.5px;}.cls-1{fill:url(#Dégradé_sans_nom_51);}.cls-2{fill:url(#Dégradé_sans_nom_36);}</style><linearGradient id="Dégradé_sans_nom_51" x1="560.44" y1="539.81" x2="1895.71" y2="539.81" gradientUnits="userSpaceOnUse"><stop offset="0" stop-color="#da8cff"/><stop offset="0.16" stop-color="#9a55ff"/><stop offset="0.32" stop-color="#4bd7ff"/></linearGradient><linearGradient id="Dégradé_sans_nom_36" x1="652.56" y1="741.02" x2="1845.28" y2="741.02" gradientUnits="userSpaceOnUse"><stop offset="0" stop-color="#da8cff"/><stop offset="0.11" stop-color="#9a55ff"/><stop offset="0.19" stop-color="#7b86ff"/><stop offset="0.26" stop-color="#3aeaff"/></linearGradient></defs><path class="cls-1" d="M561.17,444.15c132.29-64.9,247.83-64.59,284.4-16.22,30.12,39.85,11.63,118.93-22,128.43-53.66,15.15-136.61-149-156.31-139.45-26,12.64,102.88,305.64,112.93,302.26,2.9-1-3.66-26.7-12.4-61-15.27-59.93-30.32-95.22-23.41-98.59,5.89-2.87,15.7,23.32,39.94,29.83,36,9.67,93-26.86,106.74-74.59,14.15-49-20.74-97.42-52.34-121.3-90.78-68.56-265.21-17.95-277.51,37A32.26,32.26,0,0,0,561.17,444.15Z" transform="translate(-560.19 -360.18)"/><path class="cls-2" d="M870.5,683.5c51.21,22.77,53,18,78,27,30.93,11.13-268.6,150.81-294,110-18-29,95.14-130.56,97-129,1.27,1.06-51.64,48-40,71,15.79,31.26,147.41,13,157-28,7.55-32.27-61.51-74.42-57-80C814.15,651.22,836,668.18,870.5,683.5Z" transform="translate(-560.19 -360.18)"/></svg>