<?xml version="1.0" encoding="utf-8"?>
<!-- Generator: Adobe Illustrator 25.2.1, SVG Export Plug-In . SVG Version: 6.00 Build 0)  -->
<svg version="1.1" id="Calque_1" xmlns="http://www.w3.org/2000/svg" xmlns:xlink="http://www.w3.org/1999/xlink" x="0px" y="0px"
	 viewBox="0 0 894.1 359.3" style="enable-background:new 0 0 894.1 359.3;" xml:space="preserve">
<style type="text/css">
	.st0{fill:url(#SVGID_1_);stroke:#9900FF;stroke-width:0.5;stroke-linecap:round;stroke-miterlimit:10;}
	.st1{fill:url(#SVGID_2_);stroke:#9900FF;stroke-width:0.5;stroke-linecap:round;stroke-miterlimit:10;}
	.st2{fill:url(#SVGID_3_);stroke:#9900FF;stroke-width:0.5;stroke-linecap:round;stroke-miterlimit:10;}
	.st3{fill:url(#SVGID_4_);stroke:#9900FF;stroke-width:0.5;stroke-linecap:round;stroke-miterlimit:10;}
	.st4{fill:url(#SVGID_5_);stroke:#9900FF;stroke-width:0.5;stroke-linecap:round;stroke-miterlimit:10;}
</style>
<linearGradient id="SVGID_1_" gradientUnits="userSpaceOnUse" x1="136.4618" y1="-86.7983" x2="434.6418" y2="-86.7983" gradientTransform="matrix(1 0 0 -1 -136.19 92.82)">
	<stop  offset="3.000000e-02" style="stop-color:#9A55FF"/>
	<stop  offset="1" style="stop-color:#DA8CFF"/>
</linearGradient>
<path class="st0" d="M1,84c132.3-64.9,247.8-64.6,284.4-16.2c30.1,39.9,11.6,118.9-22,128.4c-53.7,15.1-136.6-149-156.3-139.5
	C81.1,69.4,210,362.4,220,359c2.9-1-3.7-26.7-12.4-61c-15.3-59.9-30.3-95.2-23.4-98.6c5.9-2.9,15.7,23.3,39.9,29.8
	c36,9.7,93-26.9,106.7-74.6c14.1-49-20.7-97.4-52.3-121.3C187.8-35.2,13.3,15.4,1,70.3C0,74.8,0,79.5,1,84z"/>
<linearGradient id="SVGID_2_" gradientUnits="userSpaceOnUse" x1="479.59" y1="-139.2983" x2="750.52" y2="-139.2983" gradientTransform="matrix(1 0 0 -1 -136.19 92.82)">
	<stop  offset="0.16" style="stop-color:#DA8CFF"/>
	<stop  offset="1" style="stop-color:#9A55FF"/>
</linearGradient>
<path class="st1" d="M380.5,246.1c-10.3,10.3-22.5,25.4-9.2,73.2c6.8,24.6-26.2,35.6-32.7,34.5c-20-3.2,25.7-240.1,70.1-243.3
	c2.8-0.2,5.2,0.4,9.6,2.5c35.7,17.1,72.8,183.9,51.1,204.2c-6.8,6.4-14.2-20.3-21.9-55.1c-11.9-54.1-24.4-127.6-35.6-126.6
	c-22,1.9-50.8,75.9-25.2,91.3l29.6-22.4c4.7-2.8,21.9,33.6,8.2,27.4C404,222.7,398.9,231.8,380.5,246.1"/>
<linearGradient id="SVGID_3_" gradientUnits="userSpaceOnUse" x1="580.73" y1="-140.098" x2="579.93" y2="-140.098" gradientTransform="matrix(1 0 0 -1 -136.19 92.82)">
	<stop  offset="0" style="stop-color:#DA8CFF"/>
	<stop  offset="1" style="stop-color:#9A55FF"/>
</linearGradient>
<path class="st2" d="M511.5,353.8c-29.1-48.5-36.7-197.8-17.8-204.7c13.3-4.9,37.3,90.4,65.9,86.5c31.7-4.2,37.7-125.8,52.2-124.8
	c19.2,1.3,24.3,206.5,19.2,214.7c-7.8,12.5-5.6-101.8-26.1-104.9c-13.9-2.1-21.6,43.2-43.9,44.9c-24.4,1.9-39.6-50.8-50.8-46.6
	C493,225.4,520.9,369.5,511.5,353.8z"/>
<linearGradient id="SVGID_4_" gradientUnits="userSpaceOnUse" x1="776.577" y1="-135.0015" x2="926.9944" y2="-135.0015" gradientTransform="matrix(1 0 0 -1 -136.19 92.82)">
	<stop  offset="0" style="stop-color:#DA8CFF"/>
	<stop  offset="0.93" style="stop-color:#9A55FF"/>
</linearGradient>
<path class="st3" d="M744.4,217.5c27.8-13.4,41.5-40.8,33.7-65.5c-10.1-31.9-51.8-46.1-81.6-39.6c-28.2,6.2-42.2,30.3-46.1,38.1
	c-19.6,39,14.4,60.5,7.1,120.4c-5.1,41.8-24.5,54.8-14.2,65.5c21.7,22.5,140.5-1.4,147.1-53.3C794.8,249.1,749.2,220.4,744.4,217.5z
	 M675.3,310.5c-13.2-8.8,13.4-27.7,3.5-85.3c-8.9-51.8-7.9-74.4,7.1-82.3c13.1-6.9,37.1,1.8,47.9,15.2c14.8,18.5,7.5,49.8-23,67.1
	c30.6,7.9,50.6,28.4,49.6,47.2C758.7,304.9,694.8,323.5,675.3,310.5z"/>
<linearGradient id="SVGID_5_" gradientUnits="userSpaceOnUse" x1="1124.26" y1="-147.0855" x2="969.09" y2="-147.0855" gradientTransform="matrix(1 0 0 -1 -136.19 92.82)">
	<stop  offset="0.27" style="stop-color:#DA8CFF"/>
	<stop  offset="0.4" style="stop-color:#C77CFF"/>
	<stop  offset="0.63" style="stop-color:#AE66FF"/>
	<stop  offset="0.83" style="stop-color:#9F59FF"/>
	<stop  offset="1" style="stop-color:#9A55FF"/>
</linearGradient>
<path class="st4" d="M801.3,167.3c62.6-10.2-7.9,171.3,17,165c27.4-6.9,34-153,53-164C955.7,119.5,773.8,171.8,801.3,167.3z"/>
</svg>
