<svg id="Calque_1" data-name="Calque 1" xmlns="http://www.w3.org/2000/svg" viewBox="0 0 894.58 359.77"><defs><style>.cls-1{fill:#fff;stroke:#9a55ff;stroke-miterlimit:10;}</style></defs><path class="cls-1" d="M137.17,353.15c132.29-64.9,247.83-64.59,284.4-16.22,30.12,39.85,11.63,118.93-22,128.43-53.66,15.15-136.61-149-156.31-139.45-26,12.64,102.88,305.64,112.93,302.26,2.9-1-3.66-26.7-12.4-61-15.27-59.93-30.32-95.22-23.41-98.59,5.89-2.87,15.7,23.32,39.94,29.83,36,9.67,93-26.86,106.74-74.59,14.15-49-20.74-97.42-52.34-121.3-90.78-68.56-265.21-17.95-277.51,37A32.26,32.26,0,0,0,137.17,353.15Z" transform="translate(-135.94 -268.93)"/><path class="cls-1" d="M516.65,515.24c-10.34,10.29-22.48,25.4-9.19,73.15,6.84,24.59-26.21,35.6-32.7,34.54-20-3.25,25.72-240.14,70.13-243.3,2.75-.19,5.16.41,9.57,2.52,35.66,17.06,72.79,183.91,51.09,204.21-6.79,6.36-14.25-20.34-21.92-55.1C571.7,477.19,559.27,403.63,548,404.62c-22,1.94-50.8,75.93-25.23,91.32l29.64-22.35c4.71-2.75,21.93,33.58,8.17,27.43-20.43-9.15-25.54,0-43.94,14.22" transform="translate(-135.94 -268.93)"/><path class="cls-1" d="M647.71,623C618.65,574.55,611,425.2,629.87,418.29c13.28-4.86,37.3,90.35,65.89,86.54,31.67-4.22,37.67-125.78,52.16-124.82,19.15,1.26,24.35,206.53,19.22,214.7-7.85,12.49-5.62-101.76-26.08-104.86-13.86-2.1-21.64,43.25-43.93,44.94-24.43,1.86-39.57-50.78-50.79-46.6C629.23,494.56,657.12,638.68,647.71,623Z" transform="translate(-135.94 -268.93)"/><path class="cls-1" d="M880.61,486.69c27.84-13.41,41.51-40.82,33.69-65.53-10.1-31.91-51.85-46.11-81.56-39.62-28.25,6.17-42.18,30.32-46.09,38.1-19.6,39,14.4,60.49,7.09,120.38-5.1,41.77-24.51,54.85-14.18,65.53,21.72,22.46,140.53-1.38,147.15-53.34C931,518.31,885.41,489.62,880.61,486.69Zm-69.14,92.95c-13.15-8.78,13.4-27.71,3.55-85.33-8.87-51.82-7.93-74.39,7.09-82.29,13.14-6.92,37.12,1.75,47.87,15.24,14.76,18.52,7.51,49.79-23.05,67.05,30.62,7.88,50.59,28.44,49.64,47.24C894.93,574.11,830.94,592.65,811.47,579.64Z" transform="translate(-135.94 -268.93)"/><path class="cls-1" d="M937.5,436.5c62.58-10.2-7.94,171.26,17,165,27.43-6.88,34-153,53-164C1091.87,388.65,910,441,937.5,436.5Z" transform="translate(-135.94 -268.93)"/></svg>